<svg width="1446" height="720" viewBox="0 0 1446 720" fill="none" xmlns="http://www.w3.org/2000/svg">
<path d="M647 43V0H0V273H413C413 273 441.5 97 647 43Z" fill="url(#paint0_linear_1001_2407)"/>
<path d="M812 47V0H1446V261.5H1031.5C1031.5 261.5 992 101 812 47Z" fill="url(#paint1_linear_1001_2407)"/>
<path d="M653 657.5V720H0V437.5H416.5C416.5 437.5 454.5 605.5 653 657.5Z" fill="url(#paint2_linear_1001_2407)"/>
<path d="M820 643.5V720H1446V427H1030.5C1030.5 427 1006.5 581.5 820 643.5Z" fill="url(#paint3_linear_1001_2407)"/>
<path d="M1033 425L1445.5 425.5" stroke="#656565" stroke-width="2"/>
<path d="M1026 415H1446" stroke="#656565" stroke-width="2"/>
<path d="M1026 280H1446" stroke="#656565" stroke-width="2"/>
<path d="M0 427H420" stroke="#656565" stroke-width="2"/>
<path d="M1026 405H1446" stroke="#656565" stroke-width="2"/>
<path d="M1026 270H1446" stroke="#656565" stroke-width="2"/>
<path d="M0 417H420" stroke="#656565" stroke-width="2"/>
<defs>
<linearGradient id="paint0_linear_1001_2407" x1="33.4655" y1="-1.02499e-05" x2="316.068" y2="521.439" gradientUnits="userSpaceOnUse">
<stop offset="0.177372" stop-color="#E1F1F7"/>
<stop offset="0.454952" stop-color="#E1F4EF"/>
<stop offset="0.719417" stop-color="#E1F7E7"/>
</linearGradient>
<linearGradient id="paint1_linear_1001_2407" x1="1413.21" y1="-9.81809e-06" x2="1145.9" y2="504.567" gradientUnits="userSpaceOnUse">
<stop offset="0.177372" stop-color="#E1F1F7"/>
<stop offset="0.454952" stop-color="#E1F4EF"/>
<stop offset="0.719417" stop-color="#E1F7E7"/>
</linearGradient>
<linearGradient id="paint2_linear_1001_2407" x1="33.7759" y1="720" x2="330.162" y2="186.619" gradientUnits="userSpaceOnUse">
<stop offset="0.177372" stop-color="#E1F1F7"/>
<stop offset="0.454952" stop-color="#E1F4EF"/>
<stop offset="0.719417" stop-color="#E1F7E7"/>
</linearGradient>
<linearGradient id="paint3_linear_1001_2407" x1="1413.62" y1="720" x2="1093.9" y2="188.188" gradientUnits="userSpaceOnUse">
<stop offset="0.177372" stop-color="#E1F1F7"/>
<stop offset="0.454952" stop-color="#E1F4EF"/>
<stop offset="0.719417" stop-color="#E1F7E7"/>
</linearGradient>
</defs>
</svg>
