<svg width="51" height="36" viewBox="0 0 51 36" fill="none" xmlns="http://www.w3.org/2000/svg">
<path d="M15.3 18C20.2327 18 24.225 13.9741 24.225 9C24.225 4.02589 20.2327 0 15.3 0C10.3673 0 6.375 4.02589 6.375 9C6.375 13.9741 10.3673 18 15.3 18ZM21.42 20.5714H20.7586C19.1011 21.375 17.2603 21.8571 15.3 21.8571C13.3397 21.8571 11.5069 21.375 9.84141 20.5714H9.18C4.11187 20.5714 0 24.7179 0 29.8286V32.1429C0 34.2723 1.71328 36 3.825 36H26.775C28.8867 36 30.6 34.2723 30.6 32.1429V29.8286C30.6 24.7179 26.4881 20.5714 21.42 20.5714ZM38.25 18C42.4734 18 45.9 14.5446 45.9 10.2857C45.9 6.02679 42.4734 2.57143 38.25 2.57143C34.0266 2.57143 30.6 6.02679 30.6 10.2857C30.6 14.5446 34.0266 18 38.25 18ZM42.075 20.5714H41.7722C40.6645 20.9571 39.4931 21.2143 38.25 21.2143C37.0069 21.2143 35.8355 20.9571 34.7278 20.5714H34.425C32.7994 20.5714 31.3012 21.0455 29.9864 21.8089C31.9308 23.9223 33.15 26.7268 33.15 29.8286V32.9143C33.15 33.0911 33.1102 33.2598 33.1022 33.4286H47.175C49.2867 33.4286 51 31.7009 51 29.5714C51 24.5973 47.0077 20.5714 42.075 20.5714Z" fill="#FDFDFD"/>
</svg>
