<svg width="26" height="33" viewBox="0 0 26 33" fill="none" xmlns="http://www.w3.org/2000/svg">
<path d="M21.7577 17.2802C21.7885 14.8297 23.0716 12.511 25.1073 11.2275C23.8231 9.34656 21.6721 8.15397 19.4343 8.08216C17.0475 7.82522 14.7335 9.54696 13.5172 9.54696C12.2774 9.54696 10.4047 8.10767 8.3882 8.15023C5.75971 8.23732 3.3093 9.76997 2.03048 12.1268C-0.718465 17.0079 1.332 24.1816 3.96526 28.1271C5.28274 30.0592 6.82249 32.2173 8.83722 32.1408C10.8088 32.0569 11.5451 30.8514 13.9249 30.8514C16.2826 30.8514 16.9735 32.1408 19.0291 32.0921C21.1446 32.0569 22.4775 30.1515 23.7488 28.2012C24.6954 26.8245 25.4238 25.303 25.907 23.6931C23.4209 22.6146 21.7606 20.0486 21.7577 17.2802Z" fill="white"/>
<path d="M17.875 5.48737C19.0284 4.06722 19.5967 2.24186 19.4591 0.398926C17.6968 0.588755 16.069 1.45256 14.8999 2.81822C13.7567 4.15254 13.1618 5.94579 13.2743 7.71828C15.0372 7.7369 16.7703 6.89651 17.875 5.48737Z" fill="white"/>
</svg>
