<svg width="45" height="36" viewBox="0 0 45 36" fill="none" xmlns="http://www.w3.org/2000/svg">
<path d="M41.1244 13.9059L40.0706 11.2716L38.2022 6.6C36.5981 2.59031 32.7722 0 28.4531 0H16.5469C12.2288 0 8.40188 2.59031 6.79781 6.6L4.92938 11.2716L3.87563 13.9059C1.61437 14.7656 0 16.9369 0 19.5V24C0 25.5112 0.5775 26.8753 1.5 27.9309V33C1.5 34.6566 2.84344 36 4.5 36H7.5C9.15656 36 10.5 34.6566 10.5 33V30H34.5V33C34.5 34.6566 35.8434 36 37.5 36H40.5C42.1566 36 43.5 34.6566 43.5 33V27.9309C44.4225 26.8762 45 25.5122 45 24V19.5C45 16.9369 43.3856 14.7656 41.1244 13.9059ZM12.3684 8.82844C13.0519 7.12031 14.7066 6 16.5469 6H28.4531C30.2934 6 31.9481 7.12031 32.6316 8.82844L34.5 13.5H10.5L12.3684 8.82844ZM7.5 23.9812C5.7 23.9812 4.5 22.785 4.5 20.9906C4.5 19.1962 5.7 18 7.5 18C9.3 18 12 20.6916 12 22.4859C12 24.2803 9.3 23.9812 7.5 23.9812ZM37.5 23.9812C35.7 23.9812 33 24.2803 33 22.4859C33 20.6916 35.7 18 37.5 18C39.3 18 40.5 19.1962 40.5 20.9906C40.5 22.785 39.3 23.9812 37.5 23.9812Z" fill="#FDFDFD"/>
</svg>
