<svg width="45" height="30" viewBox="0 0 45 30" fill="none" xmlns="http://www.w3.org/2000/svg">
<path d="M10 7.5H35V22.5H10V7.5ZM41.25 15C41.25 17.0711 42.9289 18.75 45 18.75V26.25C45 28.3211 43.3211 30 41.25 30H3.75C1.67891 30 0 28.3211 0 26.25V18.75C2.07109 18.75 3.75 17.0711 3.75 15C3.75 12.9289 2.07109 11.25 0 11.25V3.75C0 1.67891 1.67891 0 3.75 0H41.25C43.3211 0 45 1.67891 45 3.75V11.25C42.9289 11.25 41.25 12.9289 41.25 15ZM37.5 6.875C37.5 5.83945 36.6605 5 35.625 5H9.375C8.33945 5 7.5 5.83945 7.5 6.875V23.125C7.5 24.1605 8.33945 25 9.375 25H35.625C36.6605 25 37.5 24.1605 37.5 23.125V6.875Z" fill="#FDFDFD"/>
</svg>
