<svg width="65" height="83" viewBox="0 0 65 83" fill="none" xmlns="http://www.w3.org/2000/svg">
<path d="M63.1592 83H1.84093C1.30384 83 0.868652 82.5648 0.868652 82.0277C0.868652 79.7044 2.75875 77.8147 5.08171 77.8147H18.6842V0.972275C18.6842 0.43519 19.1194 0 19.6565 0C20.1936 0 20.6288 0.43519 20.6288 0.972275V8.02399C22.3758 9.50963 30.0653 16.3478 36.3917 26.6703H40.4021C40.4068 26.6707 40.4111 26.6703 40.4153 26.6703H43.2602C43.7973 26.6703 44.2325 27.1055 44.2325 27.6426C44.2325 28.1796 43.7973 28.6148 43.2602 28.6148H40.868L38.8679 31.0486C39.839 32.9216 40.744 34.8829 41.5506 36.9274C47.6977 52.5075 45.0865 72.7619 44.2939 77.8143H59.9184C62.2418 77.8143 64.1315 79.7044 64.1315 82.0273C64.1315 82.5644 63.6963 83 63.1592 83ZM3.03216 81.0555H61.9676C61.6028 80.2897 60.8215 79.7592 59.918 79.7592H34.8353C34.8205 79.7596 34.8053 79.7596 34.7902 79.7592H23.5149C23.5079 79.7592 23.5017 79.7592 23.4947 79.7592H5.08171C4.17828 79.7588 3.39696 80.2893 3.03216 81.0555ZM36.1187 77.8143H42.3206C42.9919 73.53 45.764 52.9054 39.7414 37.641C39.0658 35.9291 38.3187 34.2754 37.5215 32.6863L36.8424 33.5128C36.5018 33.9277 35.8888 33.9876 35.4739 33.6465C35.0593 33.3055 34.999 32.6929 35.3401 32.278L36.5434 30.8133C36.137 30.0647 35.7208 29.3316 35.2969 28.6148H32.2529C34.6529 34.508 36.627 41.2746 37.2103 48.3936C38.6264 65.6651 36.9404 74.6626 36.1187 77.8143ZM25.6212 77.8143H34.0975C34.4876 76.4266 35.3552 72.6997 35.6796 66.0976L25.6212 77.8143ZM20.6288 77.8143H22.5329V64.3242H20.6288V77.8143ZM24.4774 64.3242V76.161L34.6389 64.3242H24.4774ZM25.475 62.3796H35.7939C35.8429 58.7697 35.7302 54.4941 35.3475 49.4954L25.475 62.3796ZM20.6288 62.3796H22.5329V47.8982H20.6288V62.3796ZM24.4774 47.8982V60.4848L34.1216 47.8982H24.4774ZM24.9138 45.9536H34.9955C34.2659 40.3817 32.7122 35.077 30.8451 30.3155L24.9138 45.9536ZM20.6288 45.9536H22.5329V14.2341C21.8177 13.1308 21.1717 12.1861 20.6288 11.4184V45.9536ZM24.4774 28.6148V41.6208L29.4104 28.6148H24.4774ZM37.5421 28.6148C37.6525 28.8081 37.7622 29.0026 37.8711 29.1982L38.3502 28.6148H37.5421ZM31.4327 26.6703H34.1049C31.3561 22.3421 28.3961 18.6863 25.834 15.8574C27.6183 18.8236 29.611 22.4957 31.4327 26.6703ZM24.4774 26.6703H29.3135C27.7291 23.1351 26.0319 19.9884 24.4774 17.3691V26.6703Z" fill="#33919A"/>
</svg>
