<svg width="64" height="83" viewBox="0 0 64 83" fill="none" xmlns="http://www.w3.org/2000/svg">
<g clip-path="url(#clip0_1001_2811)">
<path d="M60.9563 20.364V25.5473H2.99993C2.91414 23.863 2.9718 22.1507 2.96618 20.3696L60.9563 20.364Z" fill="#33919A"/>
<path d="M3.00005 30.7656V28.1073C2.21242 27.1079 1.11397 27.8209 0.116785 27.4715C0.0886554 27.1388 0.0506807 26.7472 0.00708008 26.2869H63.9044V27.4195C63.0127 27.8925 61.9143 27.1655 61.0197 27.9711V30.7628L3.00005 30.7656Z" fill="#33919A"/>
<path d="M4.35449 19.6215V17.5639C4.35449 17.4446 4.36574 17.3267 4.38965 17.2088C4.41216 17.0923 4.44732 16.9786 4.49373 16.8677C4.53874 16.7582 4.595 16.653 4.6611 16.5533C4.72861 16.4551 4.80316 16.3624 4.88895 16.2782C4.97334 16.194 5.06476 16.1182 5.16462 16.0522C5.26448 15.9849 5.36996 15.9301 5.47967 15.8838C5.59078 15.8375 5.7047 15.8038 5.82285 15.78C5.93958 15.7561 6.05773 15.7449 6.17868 15.7449H57.7736C57.8932 15.7449 58.0127 15.7561 58.1295 15.78C58.2476 15.8024 58.3615 15.8375 58.4726 15.8838C58.5837 15.9287 58.6878 15.9849 58.7877 16.0508C58.8875 16.1182 58.9804 16.1926 59.0648 16.2782C59.1491 16.3624 59.2251 16.4537 59.2912 16.5533C59.3587 16.653 59.415 16.7568 59.46 16.8677C59.5064 16.9786 59.5415 17.0923 59.5641 17.2088C59.588 17.3267 59.5992 17.4446 59.5992 17.5639V19.4825C57.9621 19.7829 14.6259 19.8825 4.35449 19.6215Z" fill="#33919A"/>
<path d="M9.95068 5.58472H54.0421V8.74971H9.95068V5.58472Z" fill="#33919A"/>
<path d="M46.3376 12.2178C46.3376 12.3217 46.3278 12.4256 46.3067 12.528C46.287 12.6291 46.2561 12.7287 46.2167 12.8256C46.1759 12.921 46.1267 13.0122 46.069 13.0993C46.0113 13.1863 45.9452 13.2663 45.8707 13.3393C45.7975 13.4137 45.7174 13.4782 45.6302 13.5372C45.543 13.5947 45.4516 13.6438 45.3545 13.6831C45.2589 13.7224 45.159 13.7533 45.0563 13.773C44.9537 13.794 44.8496 13.8038 44.7455 13.8038C44.6414 13.8038 44.5373 13.794 44.4347 13.773C44.3334 13.7533 44.2335 13.7224 44.1365 13.6831C44.0409 13.6438 43.948 13.5947 43.8622 13.5372C43.775 13.4782 43.6949 13.4137 43.6203 13.3393C43.5472 13.2663 43.4811 13.1863 43.422 13.0993C43.3643 13.0122 43.3151 12.921 43.2757 12.8256C43.235 12.7287 43.2054 12.6291 43.1843 12.528C43.1646 12.4256 43.1548 12.3217 43.1548 12.2178C43.1548 12.114 43.1646 12.0101 43.1843 11.9091C43.2054 11.8066 43.235 11.707 43.2757 11.6115C43.3151 11.5147 43.3643 11.4234 43.422 11.3364C43.4811 11.2508 43.5472 11.1708 43.6203 11.0964C43.6949 11.0234 43.775 10.9575 43.8622 10.8999C43.948 10.841 44.0409 10.7932 44.1365 10.7525C44.2335 10.7132 44.3334 10.6824 44.4347 10.6627C44.5373 10.6417 44.6414 10.6318 44.7455 10.6318C44.8496 10.6318 44.9537 10.6417 45.0563 10.6627C45.159 10.6824 45.2589 10.7132 45.3545 10.7525C45.4516 10.7932 45.543 10.841 45.6302 10.8999C45.7174 10.9575 45.7975 11.0234 45.8707 11.0964C45.9452 11.1708 46.0113 11.2508 46.069 11.3364C46.1267 11.4234 46.1759 11.5147 46.2167 11.6115C46.2561 11.707 46.287 11.8066 46.3067 11.9091C46.3278 12.0101 46.3376 12.114 46.3376 12.2178Z" fill="#33919A"/>
<path d="M20.249 12.2178C20.249 12.3217 20.2392 12.4256 20.2195 12.528C20.1984 12.6291 20.1688 12.7287 20.128 12.8256C20.0887 12.921 20.0394 13.0122 19.9818 13.0993C19.9227 13.1863 19.8566 13.2663 19.7835 13.3393C19.7089 13.4137 19.6288 13.4782 19.5415 13.5372C19.4558 13.5947 19.3629 13.6438 19.2673 13.6831C19.1702 13.7224 19.0704 13.7533 18.9677 13.773C18.8664 13.794 18.7624 13.8038 18.6583 13.8038C18.5528 13.8038 18.4501 13.794 18.3475 13.773C18.2448 13.7533 18.1449 13.7224 18.0493 13.6831C17.9522 13.6438 17.8608 13.5947 17.7736 13.5372C17.6864 13.4782 17.6062 13.4137 17.5331 13.3393C17.4586 13.2663 17.3925 13.1863 17.3348 13.0993C17.2771 13.0122 17.2279 12.921 17.1871 12.8256C17.1477 12.7287 17.1168 12.6291 17.0971 12.528C17.076 12.4256 17.0662 12.3217 17.0662 12.2178C17.0662 12.114 17.076 12.0101 17.0971 11.9091C17.1168 11.8066 17.1477 11.707 17.1871 11.6115C17.2279 11.5147 17.2771 11.4234 17.3348 11.3364C17.3925 11.2508 17.4586 11.1708 17.5331 11.0964C17.6062 11.0234 17.6864 10.9575 17.7736 10.8999C17.8608 10.841 17.9522 10.7932 18.0493 10.7525C18.1449 10.7132 18.2448 10.6824 18.3475 10.6627C18.4501 10.6417 18.5528 10.6318 18.6583 10.6318C18.7624 10.6318 18.8664 10.6417 18.9677 10.6627C19.0704 10.6824 19.1702 10.7132 19.2673 10.7525C19.3629 10.7932 19.4558 10.841 19.5415 10.8999C19.6288 10.9575 19.7089 11.0234 19.7835 11.0964C19.8566 11.1708 19.9227 11.2508 19.9818 11.3364C20.0394 11.4234 20.0887 11.5147 20.128 11.6115C20.1688 11.707 20.1984 11.8066 20.2195 11.9091C20.2392 12.0101 20.249 12.114 20.249 12.2178Z" fill="#33919A"/>
<path d="M59.0069 75.4854L47.2502 75.5429C47.3135 69.8389 47.3768 64.1363 47.4387 58.4351L58.7088 58.3018C58.8058 64.0296 58.9043 69.7575 59.0069 75.4854Z" fill="#33919A"/>
<path d="M46.4824 82.5229C46.2489 81.9165 46.194 81.2948 46.315 80.6576C46.4528 80.0077 46.7482 79.6975 46.9943 79.174C47.2686 78.5915 47.5077 77.6919 47.2798 76.3417L59.0295 76.2715C58.7454 77.7452 58.9887 78.7263 59.2812 79.3635C59.5738 80.0021 60.0309 80.5481 59.9591 81.3635C59.9099 81.7972 59.7524 82.186 59.4824 82.5299L46.4824 82.5229Z" fill="#33919A"/>
<path d="M47.8552 53.1004V48.4841L58.294 48.3887V53.1158L47.8552 53.1004Z" fill="#33919A"/>
<path d="M57.9522 44.8909C58.4079 45.8102 58.4079 45.8102 58.332 47.9169L47.9381 48.0081C47.7117 46.2242 47.7398 45.8088 48.2363 44.8909H57.9522Z" fill="#33919A"/>
<path d="M57.6837 42.46V44.293H48.5754L48.4558 42.46H57.6837Z" fill="#33919A"/>
<path d="M62.7244 57.447C63.0268 56.9473 63.0929 56.3396 63.1239 55.7655C63.1815 54.6329 62.6218 53.3851 61.3531 53.3486C61.1858 51.6475 61.4347 49.9436 61.3264 48.3506V48.3169C61.4136 48.2776 61.4952 48.2285 61.5697 48.1695C61.9832 47.8355 62.3208 47.406 62.3559 46.86C62.377 46.6032 62.3306 46.359 62.2167 46.1274C62.1028 45.8958 61.9382 45.7105 61.723 45.5688C61.6879 45.507 61.6457 45.4509 61.5936 45.4018L61.4263 45.274C61.332 45.2193 61.2308 45.1842 61.1225 45.1688C61.0972 45.1547 61.0718 45.1435 61.0451 45.1323L61.0156 45.1182C61.0156 45.0256 61.0156 44.9316 61.0156 44.8361V31.8772H45.1619V43.3329L45.1126 45.1337C45.0887 45.1337 45.069 45.1533 45.0465 45.1631C44.9382 45.1786 44.8356 45.2137 44.7413 45.2684L44.574 45.3975C44.5219 45.4467 44.4797 45.5014 44.4446 45.5632C44.2294 45.7049 44.0634 45.8916 43.9509 46.1232C43.837 46.3534 43.7905 46.5976 43.8116 46.8544C43.8468 47.4004 44.1844 47.8327 44.5965 48.1639C44.6752 48.2271 44.7596 48.2776 44.851 48.3169C44.7371 49.9254 44.9832 51.6405 44.8229 53.35C43.55 53.3865 42.9945 54.6343 43.0522 55.7669C43.0831 56.341 43.1492 56.9473 43.4516 57.4484C43.6288 57.7333 43.8693 57.948 44.1717 58.0926C44.1858 62.9475 44.2716 67.85 44.1112 72.74C44.0451 74.7246 43.8834 76.712 43.8482 78.7036C43.8482 79.0054 43.6555 79.3002 43.5669 79.6033C43.287 80.5704 42.9368 81.5332 43.2617 82.5311H45.3911C45.3714 82.4722 45.3545 82.4174 45.3377 82.3641H45.4797C45.2659 81.835 45.1886 81.2876 45.2477 80.7205C45.2786 80.4665 45.3405 80.2209 45.4333 79.9837C45.6401 79.6609 45.8623 79.4756 46.1126 78.9128C46.2139 78.6868 46.2913 78.4538 46.3461 78.2124C46.6021 77.4629 46.7202 76.4103 46.4488 74.9057C46.6372 69.2115 46.5936 63.4962 46.7835 57.8021C46.2477 57.5256 46.1154 57.0231 46.1154 56.4238V55.0539C46.1183 54.9023 46.1436 54.7522 46.19 54.6076C46.2364 54.4616 46.3011 54.3255 46.3869 54.1978C46.4727 54.0714 46.574 53.9592 46.6921 53.8609C46.8102 53.7641 46.9396 53.6841 47.0803 53.6237L47.152 49.204V49.1759C47.152 49.1183 47.152 49.0622 47.152 49.0089C47.0775 48.3085 47.0043 47.6081 46.9298 46.9078C46.9692 46.6607 47.0071 46.4277 47.0465 46.2018C47.1168 45.834 47.197 45.413 47.287 44.9316L47.8538 44.2537V44.2228L47.8749 44.1947V41.6557H58.3067V44.1919L58.3306 44.2214V44.2522L58.8974 44.9302C58.9875 45.4116 59.0648 45.8312 59.1379 46.2004L59.2533 46.9064L59.0212 49.0075C59.0212 49.0636 59.0212 49.1197 59.0212 49.1731V49.2025L59.0915 53.6181C59.2322 53.6799 59.3616 53.7585 59.4783 53.8567C59.5965 53.9535 59.6977 54.0658 59.7835 54.1936C59.8693 54.3199 59.9354 54.456 59.9818 54.602C60.0268 54.748 60.0522 54.8967 60.0564 55.0497V56.4182C60.0564 57.0189 59.889 57.52 59.3503 57.7964C59.5388 63.4906 59.5332 69.2073 59.7216 74.9014C59.4502 76.4004 59.5697 77.4587 59.8257 78.2082C59.8806 78.4482 59.9579 78.6812 60.0578 78.9072C60.3081 79.47 60.5304 79.6553 60.7357 79.9781C60.8299 80.2167 60.8932 80.4609 60.9228 80.7149C60.9832 81.2806 60.9059 81.8279 60.6921 82.3557H60.8327C60.8145 82.409 60.7976 82.4637 60.7793 82.5227H62.9101C63.2336 81.5234 62.8848 80.5619 62.6021 79.5949C62.5135 79.2917 62.3222 78.997 62.3222 78.6952C62.2856 76.6966 62.1253 74.7162 62.0606 72.7316C61.8932 67.8416 61.9846 62.939 61.9987 58.0842C62.3025 57.9424 62.5444 57.7305 62.7244 57.447ZM56.7962 36.8542C56.792 37.1012 56.7652 37.3468 56.7132 37.5882C56.6612 37.8296 56.5866 38.0654 56.4896 38.2928C56.3911 38.5202 56.2716 38.7363 56.1309 38.9398C55.9917 39.1433 55.8327 39.3328 55.6541 39.5055C55.4769 39.6781 55.2842 39.8325 55.0761 39.9672C54.8679 40.1034 54.6485 40.2171 54.4192 40.3097C54.1886 40.4009 53.9509 40.4711 53.7076 40.516C53.4628 40.5623 53.2167 40.5848 52.9692 40.582C52.7202 40.5806 52.4741 40.5539 52.2308 40.5034C51.9889 40.4529 51.7526 40.3799 51.5233 40.283C51.2955 40.1862 51.0775 40.0683 50.8721 39.9293C50.6668 39.7904 50.4769 39.6332 50.3025 39.4563C50.1281 39.2809 49.9734 39.09 49.8356 38.8823C49.6991 38.676 49.5838 38.4584 49.491 38.2296C49.3967 37.9995 49.3264 37.7637 49.2786 37.5208C49.2322 37.278 49.2083 37.0324 49.2097 36.7854C49.2111 36.5384 49.2364 36.2927 49.2856 36.0499C49.3349 35.8071 49.408 35.5727 49.5036 35.344C49.5993 35.1152 49.716 34.899 49.8552 34.6941C49.9931 34.4878 50.1506 34.2983 50.3264 34.1229C50.5022 33.9488 50.6935 33.793 50.9003 33.6555C51.107 33.5193 51.325 33.4029 51.5557 33.3088C51.7849 33.2134 52.0212 33.1432 52.2645 33.0941C52.5078 33.0463 52.754 33.0225 53.0029 33.0225C53.2533 33.0253 53.5008 33.0534 53.7455 33.1053C53.9903 33.1558 54.228 33.2302 54.4586 33.3285C54.6879 33.4267 54.9073 33.546 55.114 33.6864C55.3208 33.8267 55.5121 33.9853 55.6879 34.1622C55.8637 34.3404 56.0212 34.5327 56.159 34.7418C56.2969 34.9496 56.4136 35.1685 56.5078 35.4001C56.6035 35.6303 56.6752 35.8675 56.723 36.1131C56.7723 36.3573 56.7962 36.6043 56.7962 36.8542Z" fill="#33919A"/>
<path d="M46.8987 56.3466V55.1213C46.8987 54.3297 47.6047 53.6855 48.4781 53.6799L57.9789 53.6167C58.8621 53.6167 59.5808 54.2581 59.5808 55.0595V56.3676C59.5808 57.1635 58.8691 57.8105 57.9887 57.8077L48.4894 57.7894C47.6104 57.788 46.8987 57.1438 46.8987 56.3466Z" fill="#33919A"/>
<path d="M55.4796 36.7954C55.4796 36.9414 55.4655 37.086 55.4374 37.2291C55.4079 37.3723 55.3657 37.5098 55.3094 37.6446C55.2532 37.7793 55.1842 37.907 55.1027 38.0291C55.0211 38.1498 54.9283 38.2621 54.8242 38.3646C54.7201 38.4684 54.6062 38.5597 54.4838 38.6411C54.3629 38.7225 54.2335 38.7899 54.097 38.846C53.9606 38.9021 53.8214 38.9442 53.6765 38.9723C53.5331 39.0004 53.3868 39.0144 53.2405 39.0144C53.0928 39.0144 52.9466 39.0004 52.8031 38.9723C52.6582 38.9442 52.519 38.9021 52.3826 38.846C52.2461 38.7899 52.1181 38.7225 51.9958 38.6411C51.8734 38.5597 51.7595 38.4684 51.6554 38.3646C51.5513 38.2621 51.4585 38.1498 51.3769 38.0291C51.2954 37.907 51.2264 37.7793 51.1702 37.6446C51.1139 37.5098 51.0717 37.3723 51.0422 37.2291C51.0141 37.086 51 36.9414 51 36.7954C51 36.6509 51.0141 36.5063 51.0422 36.3631C51.0717 36.22 51.1139 36.081 51.1702 35.9463C51.2264 35.8115 51.2954 35.6838 51.3769 35.5631C51.4585 35.4424 51.5513 35.3301 51.6554 35.2263C51.7595 35.1238 51.8734 35.0312 51.9958 34.9512C52.1181 34.8698 52.2461 34.801 52.3826 34.7462C52.519 34.6901 52.6582 34.648 52.8031 34.6199C52.9466 34.5905 53.0928 34.5764 53.2405 34.5764C53.3868 34.5764 53.5331 34.5905 53.6765 34.6199C53.8214 34.648 53.9606 34.6901 54.097 34.7462C54.2335 34.801 54.3629 34.8698 54.4838 34.9512C54.6062 35.0312 54.7201 35.1238 54.8242 35.2263C54.9283 35.3301 55.0211 35.4424 55.1027 35.5631C55.1842 35.6838 55.2532 35.8115 55.3094 35.9463C55.3657 36.081 55.4079 36.22 55.4374 36.3631C55.4655 36.5063 55.4796 36.6509 55.4796 36.7954Z" fill="#33919A"/>
<path d="M16.8438 75.5879L5.08716 75.6454C5.14904 69.9063 5.21233 64.1672 5.27563 58.4309L16.5429 58.2976L16.8438 75.5879Z" fill="#33919A"/>
<path d="M4.32212 82.6744C4.09005 82.0652 4.03379 81.4392 4.15475 80.7978C4.29258 80.1438 4.58653 79.8322 4.83407 79.2988C5.10693 78.7121 5.34743 77.8083 5.11959 76.4468L16.8692 76.3752C16.5851 77.856 16.827 78.8455 17.1196 79.4869C17.4121 80.1283 17.8706 80.6785 17.7989 81.487C17.7511 81.9235 17.5922 82.315 17.3221 82.6631L4.32212 82.6744Z" fill="#33919A"/>
<path d="M5.69189 53.0637V48.4194L16.1307 48.324V53.0806L5.69189 53.0637Z" fill="#33919A"/>
<path d="M15.789 44.804C16.2433 45.7303 16.2433 45.7303 16.1688 47.8496L5.77495 47.9409C5.54851 46.1471 5.57523 45.7289 6.07312 44.804H15.789Z" fill="#33919A"/>
<path d="M15.5162 42.3589V44.206H6.41216C6.37278 43.5899 6.33199 42.9723 6.28979 42.3547L15.5162 42.3589Z" fill="#33919A"/>
<path d="M20.5585 57.4386C20.8637 56.939 20.9298 56.3242 20.9579 55.746C21.017 54.6063 20.4572 53.3501 19.1886 53.315C19.0212 51.6041 19.2716 49.889 19.1633 48.2791C19.1619 48.2679 19.1619 48.2567 19.1633 48.2454C19.2505 48.2061 19.3306 48.157 19.4052 48.098C19.8187 47.764 20.1576 47.3275 20.1928 46.7801C20.2139 46.5219 20.1675 46.2762 20.0536 46.0447C19.9396 45.8117 19.7751 45.6236 19.5585 45.4804C19.5247 45.4173 19.4811 45.3625 19.4291 45.3134L19.2617 45.1843C19.1675 45.1296 19.0662 45.0945 18.9579 45.079C18.9326 45.0678 18.9073 45.0524 18.8806 45.0425L18.8496 45.0285C18.8496 44.9359 18.8496 44.8404 18.8496 44.7436V31.7117H2.9973V43.2376L2.94667 45.0383L2.88197 45.0692C2.77367 45.0846 2.67241 45.1183 2.57677 45.1745L2.4108 45.3036C2.35736 45.3527 2.31516 45.4075 2.28141 45.4706C2.06481 45.6138 1.90025 45.8004 1.78633 46.0334C1.67241 46.2664 1.62599 46.512 1.64568 46.7703C1.68085 47.3177 2.02121 47.7528 2.43331 48.0882C2.51066 48.15 2.59505 48.2005 2.68647 48.2412C2.57395 49.8581 2.82009 51.5845 2.65975 53.3052C1.38689 53.3403 0.829931 54.5965 0.889003 55.7361C0.918539 56.3144 0.984643 56.9235 1.28844 57.4288C1.46566 57.7151 1.70616 57.9313 2.00855 58.0787C2.02262 62.9616 2.10701 67.8936 1.94667 72.8159C1.88197 74.8145 1.72023 76.8132 1.68225 78.8132C1.68225 79.1164 1.49238 79.4125 1.40377 79.7185C1.12248 80.6898 0.772266 81.6596 1.09716 82.6631H3.22656C3.20546 82.6056 3.18858 82.5509 3.17311 82.4961H3.31094C3.09997 81.9684 3.02402 81.4224 3.08028 80.8568C3.11123 80.6013 3.17311 80.3543 3.26594 80.1157C3.47269 79.7901 3.69632 79.6062 3.94667 79.0392C4.04793 78.8104 4.12951 78.5732 4.18717 78.329C4.44315 77.5767 4.55989 76.517 4.29125 74.997C4.47831 69.2677 4.43331 63.5174 4.62459 57.7881C4.08872 57.5102 3.95651 57.0049 3.95651 56.4028V55.0344C3.95933 54.8814 3.98464 54.7312 4.03106 54.5852C4.07747 54.4393 4.14357 54.3017 4.22796 54.174C4.31376 54.0463 4.41643 53.934 4.53457 53.8357C4.65272 53.7361 4.78211 53.6561 4.92276 53.5957C4.94667 52.1122 4.96917 50.6314 4.99167 49.1507V49.1226C4.99167 49.0651 4.99167 49.009 4.99167 48.9556L4.77086 46.8419C4.81024 46.5949 4.84962 46.3605 4.88619 46.1317L5.1281 44.8545L5.6921 44.1625V44.1288L5.7146 44.1008V41.5491H16.1464V44.1008L16.1703 44.1288V44.1625L16.7357 44.8446L16.9776 46.1219C17.0142 46.3506 17.0536 46.585 17.0929 46.8321L16.8721 48.9458C16.8721 49.0033 16.8721 49.0609 16.8721 49.1114V49.1409L16.9424 53.5845C17.0831 53.6477 17.2125 53.7291 17.3292 53.8287C17.446 53.9284 17.5472 54.0421 17.6316 54.1712C17.716 54.2989 17.7807 54.4379 17.8257 54.5838C17.8707 54.7312 17.8932 54.8814 17.896 55.0344V56.4126C17.896 57.0148 17.7287 57.52 17.19 57.7979C17.377 63.5272 17.3728 69.2789 17.5613 75.0082C17.2898 76.5212 17.4094 77.5809 17.6654 78.3388C17.7202 78.5816 17.7962 78.8174 17.896 79.0462C18.1478 79.6118 18.37 79.7971 18.5754 80.1227C18.6696 80.3585 18.7329 80.6041 18.7652 80.8568C18.8257 81.4266 18.7484 81.9782 18.5346 82.5116H18.6724C18.6569 82.5663 18.6401 82.621 18.6218 82.6772H20.7512C21.0747 81.6778 20.7259 80.7052 20.4432 79.7339C20.3545 79.428 20.1647 79.1304 20.1647 78.8273C20.1281 76.8286 19.9664 74.83 19.9003 72.8299C19.7329 67.9091 19.8243 62.9756 19.8384 58.0927C20.1422 57.9453 20.3827 57.7264 20.5585 57.4386ZM14.633 36.7195C14.633 36.9693 14.6077 37.2164 14.5599 37.462C14.5121 37.7062 14.4403 37.9448 14.3447 38.1764C14.2505 38.4066 14.1337 38.6269 13.9959 38.8361C13.8581 39.0438 13.7005 39.2375 13.5261 39.4157C13.3503 39.594 13.159 39.754 12.9523 39.8943C12.7441 40.0361 12.5261 40.1554 12.2955 40.2536C12.0648 40.3533 11.8271 40.4277 11.5824 40.481C11.3377 40.5329 11.0901 40.561 10.8398 40.5652C10.5894 40.561 10.3419 40.5315 10.0972 40.4782C9.85243 40.4249 9.61615 40.3491 9.38549 40.2508C9.15623 40.1512 8.93823 40.0305 8.73288 39.8901C8.52613 39.7484 8.33626 39.5898 8.16045 39.4115C7.98605 39.2333 7.82993 39.0396 7.6921 38.8319C7.55426 38.6227 7.43893 38.4038 7.3447 38.1722C7.24906 37.942 7.17874 37.7034 7.12951 37.4592C7.08169 37.215 7.05778 36.9679 7.05778 36.7181C7.05778 36.4683 7.08169 36.2227 7.12951 35.977C7.17874 35.7328 7.24906 35.4956 7.3447 35.264C7.43893 35.0339 7.55426 34.8135 7.6921 34.6058C7.82993 34.3967 7.98605 34.2044 8.16045 34.0261C8.33626 33.8479 8.52613 33.6879 8.73288 33.5461C8.93823 33.4057 9.15623 33.285 9.38549 33.1868C9.61615 33.0871 9.85243 33.0114 10.0972 32.958C10.3419 32.9047 10.5894 32.8766 10.8398 32.871C11.0901 32.8752 11.3377 32.9033 11.5824 32.9566C11.8285 33.0085 12.0662 33.0843 12.2955 33.1826C12.5261 33.2822 12.7455 33.4015 12.9523 33.5433C13.159 33.6836 13.3503 33.8437 13.5261 34.0219C13.7019 34.2002 13.8581 34.3938 13.9959 34.6016C14.1337 34.8107 14.2505 35.0311 14.3447 35.2626C14.4403 35.4928 14.5121 35.7314 14.5599 35.977C14.6077 36.2213 14.633 36.4697 14.633 36.7195Z" fill="#33919A"/>
<path d="M4.7356 56.3326V55.0975C4.7356 54.3017 5.44024 53.6532 6.31506 53.649L15.8158 53.5845C16.699 53.5845 17.4177 54.2301 17.4177 55.0357V56.3424C17.4177 57.1453 16.7032 57.7951 15.8242 57.7937L6.3235 57.7839C5.44586 57.7811 4.7356 57.134 4.7356 56.3326Z" fill="#33919A"/>
<path d="M13.3165 36.6606C13.3165 36.808 13.3025 36.9525 13.2729 37.0957C13.2448 37.2403 13.2026 37.3792 13.1463 37.5153C13.0901 37.6501 13.0212 37.7792 12.9396 37.9013C12.858 38.0234 12.7652 38.1357 12.6611 38.2396C12.557 38.3434 12.4431 38.4361 12.3207 38.5175C12.1984 38.5989 12.069 38.6677 11.934 38.7238C11.7975 38.7799 11.6583 38.822 11.5134 38.8501C11.3686 38.8796 11.2237 38.8936 11.076 38.8936C10.9297 38.8936 10.7835 38.8796 10.64 38.8501C10.4951 38.822 10.3545 38.7799 10.2195 38.7238C10.083 38.6677 9.95365 38.5989 9.83129 38.5175C9.70893 38.4361 9.59641 38.3434 9.49233 38.2396C9.38825 38.1357 9.29542 38.0234 9.21385 37.9013C9.13227 37.7792 9.06336 37.6501 9.0071 37.5153C8.95084 37.3792 8.90864 37.2403 8.87911 37.0957C8.85098 36.9525 8.83691 36.808 8.83691 36.6606C8.83691 36.5146 8.85098 36.3687 8.87911 36.2255C8.90864 36.0809 8.95084 35.942 9.0071 35.8072C9.06336 35.6711 9.13227 35.542 9.21385 35.4213C9.29542 35.2992 9.38825 35.1855 9.49233 35.0816C9.59641 34.9791 9.70893 34.8865 9.83129 34.8051C9.95365 34.7237 10.083 34.6549 10.2195 34.5988C10.3545 34.5426 10.4951 34.5005 10.64 34.4711C10.7835 34.443 10.9297 34.429 11.076 34.429C11.2237 34.429 11.3686 34.443 11.5134 34.4711C11.6583 34.5005 11.7975 34.5426 11.934 34.5988C12.069 34.6549 12.1984 34.7237 12.3207 34.8051C12.4431 34.8865 12.557 34.9791 12.6611 35.0816C12.7652 35.1855 12.858 35.2992 12.9396 35.4213C13.0212 35.542 13.0901 35.6711 13.1463 35.8072C13.2026 35.942 13.2448 36.0809 13.2729 36.2255C13.3025 36.3687 13.3165 36.5146 13.3165 36.6606Z" fill="#33919A"/>
<path d="M42.8044 79.887C42.8887 79.581 43.0674 79.282 43.0674 78.9775C43.1025 76.9648 43.2544 74.9577 43.3163 72.9549C43.4668 68.0158 43.3866 63.0641 43.3754 58.1615C43.0842 58.0099 42.8578 57.7924 42.6961 57.5088C42.4105 57.0092 42.3473 56.3902 42.3177 55.8106C42.2643 54.6667 42.7875 53.4063 43.99 53.3698C44.1419 51.642 43.9098 49.9101 44.0167 48.2876C43.9295 48.2469 43.8494 48.1949 43.7776 48.1304C43.388 47.7977 43.0688 47.3612 43.0364 46.8096C43.0153 46.5542 43.0589 46.3114 43.1658 46.0784C43.2741 45.8454 43.4316 45.6545 43.6412 45.5057C43.6722 45.444 43.7129 45.3878 43.7622 45.3387L43.9211 45.2068C43.9647 45.1815 44.0111 45.1591 44.0589 45.1408C44.0491 40.5386 44.0364 36.4655 44.0266 31.8633L19.8887 31.8914C19.8662 36.4346 19.8466 40.4488 19.8241 44.992C19.8592 45.0047 19.893 45.0215 19.9253 45.0412L20.0927 45.1717C20.1419 45.2208 20.1813 45.277 20.2122 45.3387C20.419 45.4889 20.5765 45.6812 20.6834 45.9128C20.7889 46.1458 20.8325 46.3886 20.8114 46.6426C20.7776 47.1942 20.4584 47.6293 20.0688 47.9661C19.9999 48.0265 19.9225 48.077 19.8395 48.1163C19.8395 48.1276 19.8395 48.1374 19.8395 48.1486C19.9422 49.7641 19.7129 51.4806 19.8634 53.2056C21.0617 53.2407 21.5864 54.501 21.5343 55.6463C21.5062 56.226 21.4443 56.8365 21.1588 57.3432C20.997 57.6267 20.7706 57.8443 20.4795 57.9945C20.4668 62.8985 20.3866 67.8502 20.5371 72.7892C20.599 74.7879 20.7509 76.8006 20.7861 78.8132C20.7861 79.1178 20.9647 79.414 21.0477 79.7227C21.3135 80.694 21.6412 81.6652 21.3402 82.6674L23.215 82.6758C23.2812 81.6344 23.2812 81.6344 22.765 80.8428C22.765 69.912 22.765 58.9826 22.765 48.0532C23.021 48.0686 23.2502 47.997 23.4513 47.8398C23.9675 47.4047 23.9844 46.3394 23.4696 45.9029C23.2544 45.7387 23.0125 45.6699 22.7439 45.7008C23.0392 43.3681 23.4907 41.1407 24.9774 39.2459C26.516 37.2852 28.4963 36.4487 30.8662 36.1258L30.4668 32.8275C30.7017 32.6633 30.9563 32.5384 31.2305 32.4528C31.5048 32.3658 31.7847 32.3236 32.0716 32.3236C32.3585 32.3236 32.6398 32.3658 32.9141 32.4528C33.1869 32.5384 33.4415 32.6633 33.6764 32.8275C33.5835 33.9475 33.4907 35.0662 33.3979 36.1862C35.7889 36.408 37.7158 37.4887 39.1771 39.3414C40.6384 41.194 41.1546 43.4173 41.2629 45.785C40.9886 45.7331 40.7326 45.7836 40.4977 45.9352C39.8676 46.3872 39.8283 47.757 40.471 48.2819C40.7495 48.4841 41.0575 48.5542 41.3951 48.4925V80.8414L40.7664 81.7424C40.8086 82.0765 40.8423 82.3923 40.8719 82.659L42.4556 82.5888C42.2685 81.6709 42.5624 80.7796 42.8044 79.887Z" fill="#33919A"/>
<path d="M24.1238 0.0588379H39.2461V3.23366H24.1238V0.0588379Z" fill="#194553"/>
<path d="M38.0295 0.954299H36.4711C36.45 0.829384 36.4093 0.711486 36.3474 0.60201C36.2855 0.49113 36.2053 0.394285 36.1083 0.31288C36.0126 0.23007 35.9043 0.166911 35.7848 0.123401C35.6652 0.0798911 35.5429 0.0588379 35.4149 0.0588379H27.9873C27.8607 0.0588379 27.7384 0.0798911 27.6188 0.123401C27.4993 0.166911 27.391 0.23007 27.2953 0.31288C27.1983 0.394285 27.1181 0.49113 27.0562 0.60201C26.9943 0.711486 26.9536 0.829384 26.9325 0.954299H25.3755C25.2334 0.954299 25.097 0.980967 24.9662 1.0357C24.834 1.08904 24.7187 1.16623 24.6188 1.26729C24.5176 1.36694 24.4402 1.48203 24.3868 1.61256C24.3319 1.74309 24.3052 1.87924 24.3052 2.02099V3.03856H39.0998V2.02099C39.0998 1.87924 39.0731 1.74309 39.0183 1.61256C38.9634 1.48203 38.886 1.36694 38.7862 1.26729C38.6863 1.16764 38.571 1.09044 38.4388 1.0357C38.308 0.98237 38.1716 0.954299 38.0295 0.954299Z" fill="#33919A"/>
<path d="M22.2039 3.27026H41.2011C41.3431 3.27026 41.4795 3.29693 41.6103 3.35167C41.7425 3.405 41.8579 3.4822 41.9577 3.58185C42.059 3.68291 42.1364 3.798 42.1898 3.92853C42.2447 4.05906 42.2714 4.1952 42.2714 4.33696V5.35453H21.1335V4.33696C21.1335 4.1952 21.1603 4.05906 21.2151 3.92853C21.27 3.798 21.3473 3.68291 21.4472 3.58185C21.547 3.4822 21.6624 3.405 21.7946 3.35167C21.9254 3.29693 22.0618 3.27026 22.2039 3.27026Z" fill="#33919A"/>
<path d="M9.24048 9.63247V15.0866H39.4402C41.9086 15.0866 44.3727 15.0768 46.8551 15.0866C49.3375 15.0965 51.8087 15.0501 54.3094 15.1203V9.49351C47.1913 9.24228 10.7581 9.36018 9.24048 9.63247ZM21.0253 12.5532C21.0056 12.7048 20.9718 12.8536 20.924 12.9982C20.8762 13.1441 20.8157 13.2831 20.7412 13.4178C20.668 13.5526 20.5823 13.6789 20.4852 13.7968C20.3868 13.9147 20.2799 14.0228 20.1617 14.121C20.045 14.2192 19.9184 14.3063 19.7848 14.3821C19.6512 14.4564 19.5119 14.5196 19.3671 14.5687C19.2208 14.6179 19.0731 14.6529 18.9212 14.674C18.7693 14.6965 18.616 14.7035 18.4627 14.6965C18.3094 14.6908 18.1575 14.6698 18.0084 14.6347C17.8593 14.5996 17.7131 14.5519 17.5738 14.4901C17.4332 14.4284 17.2996 14.3554 17.173 14.2684C17.045 14.1828 16.9282 14.0845 16.8199 13.9764C16.7102 13.8684 16.6132 13.7519 16.526 13.6255C16.4402 13.4992 16.3657 13.3659 16.3038 13.2255C16.2419 13.0852 16.1941 12.9406 16.1589 12.7918C16.1237 12.6431 16.1026 12.4915 16.097 12.3399C16.09 12.1869 16.097 12.0339 16.1195 11.8823C16.1406 11.7308 16.1772 11.5834 16.2264 11.4388C16.2756 11.2929 16.3375 11.1539 16.4135 11.0206C16.488 10.8872 16.5752 10.7623 16.6737 10.6458C16.7721 10.5279 16.8818 10.4213 17 10.3244C17.1195 10.2276 17.2461 10.142 17.3797 10.069C17.5147 9.99458 17.6554 9.93423 17.8017 9.88651C17.9465 9.83879 18.0956 9.8051 18.2489 9.78545C18.436 9.76159 18.6244 9.75878 18.8129 9.77703C19.0028 9.79668 19.187 9.83598 19.3657 9.89774C19.5457 9.95809 19.7159 10.0381 19.8762 10.1391C20.0379 10.2388 20.1856 10.3553 20.3192 10.4886C20.4529 10.622 20.571 10.7693 20.6709 10.9307C20.7707 11.0907 20.8523 11.2606 20.9128 11.4388C20.9747 11.6185 21.014 11.8009 21.0337 11.989C21.052 12.1771 21.0492 12.3652 21.0253 12.5532ZM41.1336 12.9897C41.1336 13.0992 41.1125 13.2059 41.0689 13.3083C41.0267 13.4108 40.9662 13.5006 40.8889 13.5778C40.8101 13.6564 40.7201 13.7168 40.6174 13.7589C40.5147 13.801 40.4079 13.822 40.2967 13.822H23.3628C23.2517 13.822 23.1448 13.801 23.0422 13.7589C22.9395 13.7168 22.8495 13.6564 22.7707 13.5778C22.6934 13.5006 22.6329 13.4108 22.5893 13.3083C22.5471 13.2059 22.526 13.0992 22.526 12.9897V11.4894C22.526 11.3799 22.5471 11.2732 22.5893 11.1708C22.6329 11.0697 22.6934 10.9785 22.7707 10.9013C22.8495 10.8227 22.9395 10.7623 23.0422 10.7202C23.1448 10.6781 23.2517 10.6571 23.3628 10.6571H40.2967C40.4079 10.6571 40.5147 10.6781 40.6174 10.7202C40.7201 10.7623 40.8101 10.8227 40.8889 10.9013C40.9662 10.9785 41.0267 11.0697 41.0689 11.1708C41.1111 11.2732 41.1336 11.3799 41.1336 11.4894V12.9897ZM47.1125 12.5532C47.0928 12.7048 47.059 12.8536 47.0112 12.9982C46.9634 13.1441 46.9029 13.2831 46.8298 13.4178C46.7552 13.5526 46.6695 13.6789 46.5724 13.7968C46.4754 13.9147 46.3671 14.0228 46.2503 14.121C46.1322 14.2192 46.007 14.3063 45.8734 14.3821C45.7398 14.4564 45.5991 14.5196 45.4543 14.5687C45.3094 14.6179 45.1603 14.6529 45.0084 14.674C44.8565 14.6965 44.7032 14.7035 44.5499 14.6965C44.3966 14.6908 44.2461 14.6698 44.0956 14.6347C43.9465 14.5996 43.8017 14.5519 43.661 14.4901C43.5204 14.4284 43.3868 14.3554 43.2602 14.2684C43.1336 14.1828 43.0154 14.0845 42.9071 13.9764C42.7989 13.8684 42.7018 13.7519 42.6146 13.6255C42.5274 13.4992 42.4543 13.3659 42.3924 13.2255C42.3305 13.0852 42.2813 12.9406 42.2461 12.7918C42.2124 12.6431 42.1913 12.4915 42.1842 12.3399C42.1772 12.1869 42.1856 12.0339 42.2067 11.8823C42.2292 11.7308 42.2644 11.5834 42.3136 11.4388C42.3628 11.2929 42.4261 11.1539 42.5007 11.0206C42.5766 10.8872 42.6638 10.7623 42.7623 10.6458C42.8607 10.5279 42.969 10.4213 43.0886 10.3244C43.2067 10.2276 43.3333 10.142 43.4683 10.069C43.6034 9.99458 43.7426 9.93423 43.8889 9.88651C44.0351 9.83879 44.1842 9.8051 44.3361 9.78545C44.5246 9.76159 44.7131 9.75878 44.9015 9.77703C45.09 9.79668 45.2742 9.83598 45.4543 9.89774C45.6329 9.95809 45.8031 10.0381 45.9648 10.1391C46.1251 10.2388 46.2728 10.3553 46.4079 10.4886C46.5415 10.622 46.6582 10.7693 46.7595 10.9307C46.8593 11.0907 46.9395 11.2606 47.0014 11.4388C47.0619 11.6185 47.1026 11.8009 47.1209 11.989C47.1406 12.1771 47.1378 12.3652 47.1125 12.5532Z" fill="#33919A"/>
<path d="M23.6091 11.0867H39.9396C40.0296 11.0867 40.1154 11.1035 40.1998 11.1386C40.2828 11.1723 40.3559 11.2214 40.4192 11.2846C40.4825 11.3491 40.5317 11.4221 40.5669 11.5049C40.6006 11.5877 40.6175 11.6734 40.6175 11.7632V12.7134C40.6175 12.8032 40.6006 12.8888 40.5669 12.9716C40.5317 13.0544 40.4825 13.1274 40.4192 13.1906C40.3559 13.2551 40.2828 13.3029 40.1998 13.338C40.1154 13.3716 40.0296 13.3899 39.9396 13.3899H23.6091C23.5191 13.3899 23.4333 13.3716 23.3503 13.338C23.2673 13.3029 23.1928 13.2551 23.1295 13.1906C23.0662 13.1274 23.0169 13.0544 22.9832 12.9716C22.948 12.8888 22.9312 12.8032 22.9312 12.7134V11.7632C22.9312 11.6734 22.948 11.5877 22.9832 11.5049C23.0169 11.4221 23.0662 11.3491 23.1295 11.2846C23.1928 11.2214 23.2673 11.1723 23.3503 11.1386C23.4333 11.1035 23.5191 11.0867 23.6091 11.0867Z" fill="#33919A"/>
<path d="M31.3995 36.1695L31.1125 33.3371C31.2574 33.2417 31.4135 33.1687 31.5795 33.1196C31.7469 33.069 31.917 33.0452 32.0915 33.0452C32.2644 33.0466 32.4346 33.0718 32.6006 33.1238C32.768 33.1743 32.9227 33.2487 33.0661 33.3455C32.9916 34.2901 32.917 35.2333 32.8397 36.1779L31.3995 36.1695Z" fill="#33919A"/>
</g>
<defs>
<clipPath id="clip0_1001_2811">
<rect width="64" height="83" fill="white"/>
</clipPath>
</defs>
</svg>
