<svg width="42" height="85" viewBox="0 0 42 85" fill="none" xmlns="http://www.w3.org/2000/svg">
<path d="M6.42453 5.36842L3 84H10.783L6.42453 5.36842Z" fill="#33919A"/>
<path d="M19.5 84L17.3208 8.96594L15.4528 84H19.5Z" fill="#33919A"/>
<path d="M36 84L30.3962 1L25.4151 84H36Z" fill="#33919A"/>
<path d="M6.42453 5.36842L3 84H10.783L6.42453 5.36842Z" stroke="#33919A"/>
<path d="M19.5 84L17.3208 8.96594L15.4528 84H19.5Z" stroke="#33919A"/>
<path d="M36 84L30.3962 1L25.4151 84H36Z" stroke="#33919A"/>
<path d="M11.5 45.7931C11.5 48.7 9.05425 51.0862 6 51.0862C2.94575 51.0862 0.5 48.7 0.5 45.7931C0.5 42.8862 2.94575 40.5 6 40.5C9.05425 40.5 11.5 42.8862 11.5 45.7931Z" fill="#33919A" stroke="#33919A"/>
<path d="M40.55 41.7409C40.55 46.831 36.2992 50.9818 31.025 50.9818C25.7508 50.9818 21.5 46.831 21.5 41.7409C21.5 36.6507 25.7508 32.5 31.025 32.5C36.2992 32.5 40.55 36.6507 40.55 41.7409Z" fill="#33919A" stroke="#33919A"/>
<path d="M35.5001 17.762C35.5001 20.0931 33.5086 22.0239 31.0001 22.0239C28.4915 22.0239 26.5 20.0931 26.5 17.762C26.5 15.4308 28.4915 13.5 31.0001 13.5C33.5086 13.5 35.5001 15.4308 35.5001 17.762Z" fill="#33919A" stroke="#33919A"/>
</svg>
