<svg width="83" height="83" viewBox="0 0 83 83" fill="none" xmlns="http://www.w3.org/2000/svg">
<g clip-path="url(#clip0_1001_2843)">
<path d="M19.9912 49.9347C22.4544 50.7134 25.83 51.5104 30.2834 52.0384C30.7045 51.3484 31.1241 50.6303 31.541 49.8854C27.6349 49.4785 24.5499 48.8603 22.1737 48.2168C21.4734 48.7913 20.7463 49.3644 19.9912 49.9347Z" fill="#33919A"/>
<path d="M11.7622 55.318C12.5187 55.7573 13.4142 56.2163 14.4682 56.6754C16.7939 57.6892 20.161 58.803 24.8503 59.6381C25.7471 58.5566 26.6721 57.3738 27.5984 56.0868C28.2174 55.2264 28.8532 54.2985 29.4932 53.3029C24.6903 52.6932 21.1435 51.7737 18.6578 50.9204C16.5637 52.4285 14.2703 53.9084 11.7622 55.318Z" fill="#33919A"/>
<path d="M41.3658 66.4209C49.6453 66.4209 55.9178 65.6676 60.593 64.6721C59.6063 63.6681 58.5087 62.4824 57.3522 61.1194C53.0405 61.8333 47.7786 62.2938 41.3658 62.2938C34.953 62.2938 29.6897 61.8333 25.3795 61.1194C24.2229 62.4824 23.1268 63.6681 22.1387 64.6721C26.8139 65.6676 33.0863 66.4209 41.3658 66.4209Z" fill="#33919A"/>
<path d="M57.8812 59.6381C62.5704 58.803 65.9376 57.6892 68.2632 56.6754C69.3173 56.2163 70.2127 55.7573 70.9693 55.318C68.4611 53.9084 66.1677 52.4285 64.0736 50.9204C61.588 51.7737 58.0412 52.6932 53.2383 53.3029C53.8783 54.2985 54.5141 55.2264 55.1331 56.0868C56.0594 57.3738 56.9843 58.5566 57.8812 59.6381Z" fill="#33919A"/>
<path d="M28.6652 56.9202C27.8988 57.9819 27.1381 58.9718 26.3928 59.8941C30.4378 60.5222 35.3741 60.939 41.3658 60.939C47.3576 60.939 52.2938 60.5222 56.3388 59.8941C55.5936 58.9718 54.8328 57.9819 54.0665 56.9202C53.2525 55.7923 52.4791 54.6447 51.7436 53.4788C48.7457 53.8012 45.3014 54.0012 41.3658 54.0012C37.4303 54.0012 33.986 53.8012 30.988 53.4788C30.2526 54.6447 29.4792 55.7923 28.6652 56.9202Z" fill="#33919A"/>
<path d="M51.1907 49.8854C51.6075 50.6303 52.0272 51.3484 52.4482 52.037C56.9003 51.5103 60.2772 50.7133 62.7404 49.9346C61.9853 49.3644 61.2583 48.7913 60.5579 48.2153C58.1817 48.8602 55.0967 49.4784 51.1907 49.8854Z" fill="#33919A"/>
<path d="M74.4783 58.5142V57.1694C73.7554 56.8103 73.0481 56.4471 72.3575 56.0781C69.8438 57.6651 65.6458 59.5646 58.9045 60.8432C60.0807 62.195 61.1881 63.3567 62.1608 64.317C64.711 63.6988 66.7181 63.0173 68.2662 62.3794C72.3168 60.7066 74.0263 59.0197 74.4783 58.5142Z" fill="#33919A"/>
<path d="M64.2941 49.4067C65.038 49.1335 65.6654 48.873 66.1861 48.6364C66.4893 48.4984 66.7153 48.2365 66.8051 47.914C66.8935 47.593 66.8374 47.2508 66.6479 46.9748C66.3419 46.5285 65.7594 46.3651 65.2626 46.5862C64.4836 46.934 63.4492 47.3409 62.1355 47.7549C62.8288 48.3083 63.5503 48.8589 64.2941 49.4067Z" fill="#33919A"/>
<path d="M44.9771 33.7329C46.2543 39.4217 48.2782 44.4008 50.486 48.5857C54.1029 48.2309 57.0082 47.693 59.2722 47.1354C54.9885 43.4405 51.7955 39.7596 49.4979 36.6477C48.8901 35.824 48.3301 35.0213 47.8122 34.2441C46.8943 34.023 45.9497 33.8526 44.9771 33.7329Z" fill="#33919A"/>
<path d="M43.6157 22.5116H48.2811C48.6418 22.5116 48.9352 22.2173 48.9352 21.8569C48.9352 21.495 48.6418 21.2007 48.2811 21.2007H43.6157V22.5116Z" fill="#33919A"/>
<path d="M37.9749 6.52099C38.5391 6.03519 39.6451 5.33817 41.3659 5.33817C43.0866 5.33817 44.1926 6.03519 44.7568 6.52099C45.1189 6.23655 45.3126 5.90423 45.3435 5.51418C45.4839 3.77798 42.8171 1.19549 41.3659 0C39.9146 1.19549 37.2479 3.77798 37.3868 5.51418C37.4191 5.90423 37.6128 6.23655 37.9749 6.52099Z" fill="#33919A"/>
<path d="M60.8652 46.7113C61.5557 46.5142 62.1663 46.3185 62.7024 46.134C62.1677 45.0089 60.8301 42.5503 58.3851 40.1199C55.9387 37.6881 53.0867 35.9223 49.8572 34.8311C50.1042 35.1817 50.3582 35.5351 50.6235 35.8928C52.9913 39.0948 56.3303 42.9094 60.8652 46.7113Z" fill="#33919A"/>
<path d="M65.6121 50.3515C67.6444 51.7737 69.862 53.1649 72.2761 54.4914C72.9666 54.014 73.4803 53.586 73.8438 53.248C72.0445 52.6946 68.5342 51.4991 66.3868 50.0291C66.1482 50.1333 65.89 50.2403 65.6121 50.3515Z" fill="#33919A"/>
<path d="M31.7725 52.1988C34.5697 52.4762 37.7544 52.6466 41.3657 52.6466C44.977 52.6466 48.1616 52.4762 50.9589 52.1988C50.528 51.4792 50.1112 50.7555 49.7112 50.0247C47.2381 50.2359 44.4675 50.3626 41.3657 50.3626C38.2639 50.3626 35.4933 50.2359 33.0202 50.0247C32.6202 50.7555 32.2033 51.4792 31.7725 52.1988Z" fill="#33919A"/>
<path d="M74.4783 54.5125C74.2341 54.7265 73.9492 54.9616 73.6179 55.2109C73.9014 55.3587 74.1878 55.5066 74.4783 55.6544V54.5125Z" fill="#33919A"/>
<path d="M49.8796 67.491C50.6544 68.2866 51.5288 69.4131 51.5288 70.4354V72.1026C55.4391 71.9026 59.1936 71.4408 62.7122 70.7297C62.9228 69.6849 63.786 68.7794 64.4344 68.2261C63.8435 67.7403 62.9115 66.9348 61.7522 65.8196C58.5339 66.5546 54.6208 67.1573 49.8796 67.491Z" fill="#33919A"/>
<path d="M65.5361 69.0767C64.9691 69.5287 64.1256 70.3383 64.0245 71.0663C64.0077 71.1832 64.0133 71.2916 64.0386 71.3986C64.7389 71.086 65.2919 70.9297 65.3565 70.9128C65.473 70.8805 65.5965 70.8805 65.713 70.9128C65.7775 70.9297 66.3305 71.086 67.0309 71.3986C67.0562 71.2916 67.0618 71.1818 67.0449 71.0663C66.9425 70.3341 66.1018 69.5258 65.5361 69.0767Z" fill="#33919A"/>
<path d="M62.2322 74.5991C62.7697 74.7596 63.8266 74.9863 65.5347 74.9863C67.2428 74.9863 68.2997 74.7596 68.8373 74.5991C68.4358 73.4107 66.506 72.5742 65.5347 72.2715C64.5635 72.5742 62.6336 73.4107 62.2322 74.5991Z" fill="#33919A"/>
<path d="M44.5685 25.5433C45.2549 25.1729 46.017 25.0349 46.8647 25.1631V23.8662H43.8906C44.0478 24.2901 44.2696 24.8547 44.5685 25.5433Z" fill="#33919A"/>
<path d="M38.1643 25.5433C38.4633 24.8547 38.685 24.2901 38.8408 23.8662H35.8667V25.1631C36.765 25.0054 37.5271 25.1391 38.1643 25.5433Z" fill="#33919A"/>
<path d="M34.7495 27.3836L35.0302 31.5474C36.132 29.7351 36.9755 28.1144 37.6029 26.7851C37.1482 26.512 36.7004 26.4021 36.2696 26.4641C35.5481 26.5669 34.9937 27.1048 34.7495 27.3836Z" fill="#33919A"/>
<path d="M75.9055 64.9522C76.4431 65.1141 77.4999 65.3394 79.2081 65.3394C80.9162 65.3394 81.973 65.1141 82.5106 64.9522C82.1092 63.7637 80.1793 62.9287 79.2081 62.626C78.2354 62.9273 76.3069 63.7637 75.9055 64.9522Z" fill="#33919A"/>
<path d="M77.7119 61.7515C78.4123 61.4403 78.9653 61.284 79.0298 61.2657C79.1463 61.2347 79.2698 61.2347 79.3863 61.2657C79.4509 61.284 80.0039 61.4403 80.7043 61.7515C80.7295 61.6459 80.7351 61.536 80.7183 61.4206C80.6158 60.6926 79.7751 59.8829 79.2081 59.4309C78.641 59.8829 77.7989 60.6926 77.6979 61.4206C77.681 61.536 77.6866 61.6459 77.7119 61.7515Z" fill="#33919A"/>
<path d="M41.3657 6.69287C39.7236 6.69287 38.8688 7.50254 38.6569 7.73488C38.5825 7.95454 38.4309 8.6065 38.9278 9.27676C39.4513 9.02894 40.3327 8.70366 41.3657 8.70366C42.3988 8.70366 43.2788 9.02894 43.8037 9.27676C44.3006 8.60368 44.1434 7.94328 44.0746 7.73488C43.8683 7.50817 43.0135 6.69287 41.3657 6.69287Z" fill="#33919A"/>
<path d="M38.807 27.4175C38.1193 28.8721 37.1831 30.6533 35.9424 32.6529C36.6203 32.5247 37.3235 32.4191 38.0519 32.3388C38.3663 30.7505 38.6217 29.1086 38.807 27.4175Z" fill="#33919A"/>
<path d="M44.6794 32.3388C45.4079 32.4191 46.111 32.5247 46.789 32.6529C45.5482 30.6533 44.6121 28.8721 43.9243 27.4175C44.1096 29.1086 44.3636 30.7505 44.6794 32.3388Z" fill="#33919A"/>
<path d="M39.4556 32.2204C40.0759 32.1824 40.7117 32.1599 41.3658 32.1599C42.0198 32.1599 42.6556 32.1824 43.276 32.2204C42.8971 30.2336 42.622 28.2284 42.4479 26.2106C42.1265 26.0923 41.7616 26.0078 41.3658 26.0078C40.97 26.0078 40.6051 26.0923 40.2823 26.2106C40.1096 28.2284 39.8345 30.2336 39.4556 32.2204Z" fill="#33919A"/>
<path d="M47.9821 27.3836C47.7365 27.1034 47.1793 26.5627 46.4537 26.4627C46.0256 26.405 45.5821 26.512 45.1301 26.7837C45.7575 28.1144 46.601 29.7351 47.7014 31.546L47.9821 27.3836Z" fill="#33919A"/>
<path d="M40.4661 21.2007H42.2654V22.5116H40.4661V21.2007Z" fill="#33919A"/>
<path d="M33.7166 48.7153C36.0015 48.8983 38.5447 49.0082 41.3659 49.0082C44.187 49.0082 46.7288 48.8983 49.0152 48.7153C47.985 46.7256 47.0643 44.6951 46.2642 42.6336C45.1175 39.6808 44.2151 36.6618 43.5554 33.5935C42.8382 33.5428 42.1097 33.5146 41.3659 33.5146C40.622 33.5146 39.8936 33.5428 39.1763 33.5935C38.5167 36.6618 37.6142 39.6808 36.4675 42.6336C35.6661 44.6951 34.7468 46.7256 33.7166 48.7153Z" fill="#33919A"/>
<path d="M40.3889 24.7674C40.6935 24.697 41.0205 24.6533 41.3658 24.6533C41.7111 24.6533 42.0367 24.697 42.3426 24.7674C42.3244 24.4675 42.309 24.1675 42.2949 23.8662H40.4366C40.4226 24.1675 40.4072 24.4675 40.3889 24.7674Z" fill="#33919A"/>
<path d="M16.5441 48.6364C17.0648 48.873 17.6936 49.1335 18.4361 49.4066C19.1813 48.8589 19.9028 48.3083 20.5947 47.7549C19.281 47.3409 18.248 46.934 17.4676 46.5862C17.3202 46.52 17.163 46.489 17.0087 46.489C16.6479 46.489 16.2971 46.6622 16.0837 46.9748C15.8942 47.2508 15.8367 47.593 15.9265 47.914C16.0163 48.2351 16.2409 48.4984 16.5441 48.6364Z" fill="#33919A"/>
<path d="M37.5242 78.4644V80.3034C38.2372 80.3555 39.5593 80.4287 41.3657 80.4287C43.1748 80.4287 44.4956 80.3555 45.2072 80.3034V78.4644C44.4507 78.5179 43.1412 78.5869 41.3657 78.5869C39.5902 78.5855 38.2807 78.5179 37.5242 78.4644Z" fill="#33919A"/>
<path d="M37.5242 75.2681V77.1057C38.2372 77.1578 39.5593 77.231 41.3657 77.231C43.1748 77.231 44.4956 77.1578 45.2072 77.1057V75.2681C44.4507 75.3216 43.1412 75.3892 41.3657 75.3892C39.5902 75.3892 38.2807 75.3216 37.5242 75.2681Z" fill="#33919A"/>
<path d="M41.3659 67.7755C39.4936 67.7755 37.7223 67.7375 36.0422 67.6685C36.7693 68.4486 37.5244 69.4863 37.5244 70.4354V73.9092C38.2374 73.9613 39.5595 74.0346 41.3659 74.0346C43.175 74.0346 44.4958 73.9613 45.2074 73.9092V70.4354C45.2074 69.4863 45.9625 68.4486 46.6895 67.6685C45.0081 67.7375 43.2382 67.7755 41.3659 67.7755Z" fill="#33919A"/>
<path d="M34.3634 67.9163C33.5072 68.6921 32.5542 69.7975 32.5542 70.4354V82.4593H36.1725V70.4354C36.1725 69.7975 35.2181 68.6921 34.3634 67.9163Z" fill="#33919A"/>
<path d="M13.8184 75.9861V77.68C14.3264 77.8392 15.403 78.0884 17.1967 78.0884C18.9876 78.0884 20.0641 77.8406 20.575 77.6786V75.9861C19.8747 76.1635 18.7785 76.3409 17.1967 76.3409C15.6149 76.3409 14.5187 76.1635 13.8184 75.9861Z" fill="#33919A"/>
<path d="M48.368 67.9177C47.5118 68.6922 46.5588 69.7976 46.5588 70.4354V82.4593H50.1772V70.4354C50.1772 69.8046 49.2115 68.6837 48.368 67.9177Z" fill="#33919A"/>
<path d="M20.9793 65.8196C19.82 66.9362 18.888 67.7403 18.2971 68.2275C18.9456 68.7794 19.8073 69.6849 20.0193 70.7297C23.538 71.4422 27.2924 71.9026 31.2027 72.104V70.4354C31.2027 69.4131 32.0771 68.288 32.8519 67.491C28.1107 67.1573 24.1976 66.5546 20.9793 65.8196Z" fill="#33919A"/>
<path d="M21.8241 74.3036C24.8081 74.8246 27.9576 75.1724 31.2012 75.3386V73.4601C27.2923 73.2616 23.5322 72.8082 19.9995 72.1069C20.8094 72.642 21.5588 73.3672 21.8241 74.3036Z" fill="#33919A"/>
<path d="M13.8184 79.0896V80.8033C14.405 80.9751 15.5882 81.2468 17.1967 81.2468C18.8037 81.2468 19.9869 80.9751 20.575 80.8033V79.0896C19.8747 79.267 18.7785 79.4444 17.1967 79.4444C15.6149 79.4444 14.5187 79.267 13.8184 79.0896Z" fill="#33919A"/>
<path d="M76.359 61.2291C76.3955 60.9714 76.4741 60.7222 76.5794 60.4828L75.2797 59.6436C74.2158 60.7503 70.9778 63.4497 63.3257 65.4351C64.8275 66.8376 65.8142 67.6008 65.9265 67.6867C66.1426 67.8303 67.1321 68.5189 67.7946 69.4792C71.4297 68.4077 73.6754 67.3248 74.4782 66.9066V65.3943C74.4782 64.0481 75.4551 63.0639 76.5036 62.395C76.3534 62.0275 76.3029 61.6332 76.359 61.2291Z" fill="#33919A"/>
<path d="M51.5288 73.4601V75.3386C54.7738 75.1724 57.9234 74.8246 60.9073 74.3036C61.1726 73.3672 61.9207 72.642 62.7305 72.1069C59.1992 72.8082 55.4377 73.2616 51.5288 73.4601Z" fill="#33919A"/>
<path d="M79.2082 66.694C77.6264 66.694 76.5302 66.5165 75.8298 66.3391V68.0331C76.3407 68.1936 77.4172 68.4428 79.2082 68.4428C80.9991 68.4428 82.0756 68.1936 82.5865 68.0331V66.3391C81.8861 66.5165 80.79 66.694 79.2082 66.694Z" fill="#33919A"/>
<path d="M75.8298 69.4426V71.1563C76.4165 71.3281 77.5997 71.5999 79.2082 71.5999C80.8152 71.5999 81.9984 71.3281 82.5865 71.1563V69.4426C81.8861 69.62 80.79 69.7975 79.2082 69.7975C77.6264 69.7975 76.5302 69.62 75.8298 69.4426Z" fill="#33919A"/>
<path d="M62.1565 79.0896V80.8033C62.7446 80.9751 63.9264 81.2468 65.5348 81.2468C67.1419 81.2468 68.3251 80.9751 68.9132 80.8033V79.0896C68.2128 79.267 67.1166 79.4444 65.5348 79.4444C63.953 79.4444 62.8569 79.267 62.1565 79.0896Z" fill="#33919A"/>
<path d="M68.2395 72.042C68.4206 72.1574 68.5974 72.2813 68.77 72.4165C71.8312 71.4477 73.7498 70.5212 74.4783 70.141V68.4231C73.361 68.9624 71.3231 69.8397 68.3574 70.7254C68.45 71.2351 68.429 71.6843 68.2395 72.042Z" fill="#33919A"/>
<path d="M62.1565 75.9861V77.6786C62.6674 77.8406 63.7439 78.0884 65.5348 78.0884C67.3257 78.0884 68.4023 77.8406 68.9132 77.6786V75.9861C68.2128 76.1635 67.1166 76.3409 65.5348 76.3409C63.953 76.3409 62.8569 76.1635 62.1565 75.9861Z" fill="#33919A"/>
<path d="M17.1195 50.3515C16.8416 50.2403 16.5833 50.1333 16.3447 50.0291C14.1973 51.4991 10.6856 52.6946 8.8877 53.248C9.25121 53.586 9.76491 54.014 10.4555 54.4914C12.8696 53.1649 15.0872 51.7737 17.1195 50.3515Z" fill="#33919A"/>
<path d="M8.25342 54.5125V55.653C8.54395 55.5066 8.83027 55.3587 9.11379 55.2109C8.78255 54.9616 8.49763 54.7279 8.25342 54.5125Z" fill="#33919A"/>
<path d="M14.4922 72.042C14.363 71.6744 14.3111 71.245 14.3743 70.7254C11.4086 69.8397 9.37064 68.9624 8.25342 68.4231V70.141C8.98186 70.5212 10.8991 71.4477 13.9616 72.4165C14.1343 72.2813 14.3111 72.1574 14.4922 72.042Z" fill="#33919A"/>
<path d="M14.4655 62.378C16.0136 63.0173 18.0207 63.6988 20.5709 64.317C21.5436 63.3553 22.651 62.1936 23.8271 60.8432C17.0859 59.5646 12.8879 57.6651 10.3742 56.0781C9.68363 56.4471 8.97624 56.8103 8.25342 57.168V58.5142C8.70115 59.0169 10.4107 60.7052 14.4655 62.378Z" fill="#33919A"/>
<path d="M32.1473 35.8407C32.3985 35.4999 32.6385 35.1648 32.8743 34.8311C29.6447 35.9223 26.7927 37.6881 24.3464 40.1199C21.9014 42.5503 20.5638 45.0089 20.0291 46.134C20.5652 46.3185 21.1757 46.5142 21.8663 46.7113C26.4222 42.8911 29.7739 39.0568 32.1473 35.8407Z" fill="#33919A"/>
<path d="M34.4504 22.5116H39.1144V21.2007H34.4504C34.0897 21.2007 33.7964 21.495 33.7964 21.8569C33.7964 22.2173 34.0897 22.5116 34.4504 22.5116Z" fill="#33919A"/>
<path d="M23.4592 47.1354C25.7217 47.693 28.6285 48.2309 32.2454 48.5857C34.4532 44.4008 36.4771 39.4217 37.7543 33.7329C36.7817 33.8526 35.8371 34.023 34.9178 34.2441C34.4013 35.0213 33.8412 35.8226 33.2335 36.6463C30.9359 39.7596 27.7428 43.4405 23.4592 47.1354Z" fill="#33919A"/>
<path d="M43.408 10.5932C43.0796 10.4186 42.295 10.0596 41.3658 10.0596C40.4381 10.0596 39.6507 10.4186 39.3237 10.5932L35.4653 19.846H47.2663L43.408 10.5932Z" fill="#33919A"/>
<path d="M17.1968 69.0779C16.6298 69.5285 15.7877 70.3381 15.6866 71.0661C15.6698 71.183 15.6754 71.2914 15.7007 71.3985C16.401 71.0859 16.954 70.9296 17.0186 70.9127C17.1351 70.8803 17.2586 70.8803 17.3751 70.9127C17.4397 70.9296 17.9927 71.0859 18.693 71.3985C18.7183 71.2914 18.7239 71.183 18.7071 71.0661C18.606 70.3396 17.7639 69.5299 17.1968 69.0779Z" fill="#33919A"/>
<path d="M8.25345 66.9066C9.05487 67.3248 11.3005 68.4077 14.9371 69.4792C15.5996 68.5189 16.5891 67.8303 16.8052 67.6867C16.9175 67.6008 17.9042 66.8376 19.4046 65.4365C11.7539 63.4497 8.51591 60.7503 7.45203 59.6436L6.15234 60.4828C6.25761 60.7222 6.3348 60.9714 6.3713 61.2291C6.42884 61.6346 6.37831 62.0275 6.22814 62.395C7.27658 63.0653 8.25345 64.0481 8.25345 65.3943V66.9066Z" fill="#33919A"/>
<path d="M13.8928 74.5991C14.429 74.7596 15.4858 74.9863 17.1968 74.9863C18.9049 74.9863 19.9617 74.7596 20.4993 74.5991C20.0979 73.4107 18.168 72.5742 17.1968 72.2715C16.2241 72.5742 14.2956 73.4107 13.8928 74.5991Z" fill="#33919A"/>
<path d="M0.14502 69.4426V71.1563C0.733105 71.3281 1.91489 71.5999 3.52335 71.5999C5.13041 71.5999 6.3136 71.3281 6.90168 71.1563V69.4426C6.20131 69.62 5.10515 69.7975 3.52335 69.7975C1.94156 69.7975 0.845388 69.62 0.14502 69.4426Z" fill="#33919A"/>
<path d="M6.82603 64.9522C6.42461 63.7637 4.49474 62.9287 3.52349 62.626C2.55223 62.9287 0.622361 63.7651 0.220947 64.9522C0.755698 65.1127 1.81257 65.3394 3.52349 65.3394C5.2316 65.3394 6.28847 65.1127 6.82603 64.9522Z" fill="#33919A"/>
<path d="M3.34525 61.2657C3.46175 61.2347 3.58526 61.2347 3.70175 61.2657C3.76632 61.284 4.31931 61.4403 5.01968 61.7515C5.04495 61.6459 5.05056 61.536 5.03372 61.4206C4.93126 60.6926 4.09053 59.8829 3.5235 59.4309C2.95647 59.8829 2.11434 60.6926 2.01329 61.4206C1.99645 61.536 2.00206 61.6459 2.02732 61.7515C2.72769 61.4403 3.28069 61.284 3.34525 61.2657Z" fill="#33919A"/>
<path d="M0.14502 66.3391V68.0331C0.653102 68.1936 1.73102 68.4428 3.52335 68.4428C5.31427 68.4428 6.39079 68.1936 6.90168 68.0331V66.3391C6.20131 66.5165 5.10515 66.694 3.52335 66.694C1.94156 66.694 0.845388 66.5165 0.14502 66.3391Z" fill="#33919A"/>
</g>
<defs>
<clipPath id="clip0_1001_2843">
<rect width="83" height="83" fill="white"/>
</clipPath>
</defs>
</svg>
